<svg id="visual" viewBox="0 0 7000 4000" width="7000" height="4000" xmlns="http://www.w3.org/2000/svg" xmlns:xlink="http://www.w3.org/1999/xlink" version="1.1"><rect x="0" y="0" width="7000" height="4000" fill="#002233"></rect><path d="M0 3487L166.7 3421.2C333.3 3355.3 666.7 3223.7 1000 3220.3C1333.3 3217 1666.7 3342 2000 3379C2333.3 3416 2666.7 3365 3000 3217.5C3333.3 3070 3666.7 2826 4000 2765.5C4333.3 2705 4666.7 2828 5000 2825.7C5333.3 2823.3 5666.7 2695.7 6000 2625.7C6333.3 2555.7 6666.7 2543.3 6833.3 2537.2L7000 2531L7000 4001L6833.3 4001C6666.7 4001 6333.3 4001 6000 4001C5666.7 4001 5333.3 4001 5000 4001C4666.7 4001 4333.3 4001 4000 4001C3666.7 4001 3333.3 4001 3000 4001C2666.7 4001 2333.3 4001 2000 4001C1666.7 4001 1333.3 4001 1000 4001C666.7 4001 333.3 4001 166.7 4001L0 4001Z" fill="#0066FF" stroke-linecap="round" stroke-linejoin="miter"></path></svg>