<svg id="visual" viewBox="0 0 7000 4000" width="7000" height="4000" xmlns="http://www.w3.org/2000/svg" xmlns:xlink="http://www.w3.org/1999/xlink" version="1.1"><rect x="0" y="0" width="7000" height="4000" fill="#002233"></rect><path d="M0 1860L129.7 1942.7C259.3 2025.3 518.7 2190.7 778 2311.7C1037.3 2432.7 1296.7 2509.3 1555.8 2472.5C1815 2435.7 2074 2285.3 2333.2 2218C2592.3 2150.7 2851.7 2166.3 3111 2210.5C3370.3 2254.7 3629.7 2327.3 3889 2291.3C4148.3 2255.3 4407.7 2110.7 4666.8 2139.5C4926 2168.3 5185 2370.7 5444.2 2423C5703.3 2475.3 5962.7 2377.7 6222 2201.5C6481.3 2025.3 6740.7 1770.7 6870.3 1643.3L7000 1516L7000 0L6870.3 0C6740.7 0 6481.3 0 6222 0C5962.7 0 5703.3 0 5444.2 0C5185 0 4926 0 4666.8 0C4407.7 0 4148.3 0 3889 0C3629.7 0 3370.3 0 3111 0C2851.7 0 2592.3 0 2333.2 0C2074 0 1815 0 1555.8 0C1296.7 0 1037.3 0 778 0C518.7 0 259.3 0 129.7 0L0 0Z" fill="#FBAE3C" stroke-linecap="round" stroke-linejoin="miter"></path></svg>