<svg id="visual" viewBox="0 0 7000 4000" width="7000" height="4000" xmlns="http://www.w3.org/2000/svg" xmlns:xlink="http://www.w3.org/1999/xlink" version="1.1"><rect x="0" y="0" width="7000" height="4000" fill="#001220"></rect><defs><linearGradient id="grad1_0" x1="42.9%" y1="0%" x2="100%" y2="100%"><stop offset="15%" stop-color="#001220" stop-opacity="1"></stop><stop offset="85%" stop-color="#001220" stop-opacity="1"></stop></linearGradient></defs><defs><linearGradient id="grad2_0" x1="0%" y1="0%" x2="57.1%" y2="100%"><stop offset="15%" stop-color="#001220" stop-opacity="1"></stop><stop offset="85%" stop-color="#001220" stop-opacity="1"></stop></linearGradient></defs><g transform="translate(7000, 0)"><path d="M0 2200C-313.5 2199.9 -627.1 2199.9 -841.9 2032.5C-1056.7 1865.2 -1172.9 1530.6 -1286.2 1286.2C-1399.6 1041.9 -1510.2 887.8 -1662.1 688.4C-1813.9 489.1 -2006.9 244.6 -2200 0L0 0Z" fill="#FBAE3C"></path></g><g transform="translate(0, 4000)"><path d="M0 -2200C207.4 -1968.9 414.8 -1737.8 687.3 -1659.3C959.8 -1580.8 1297.6 -1654.9 1542.2 -1542.2C1786.8 -1429.5 1938.4 -1130.1 2032.5 -841.9C2126.7 -553.7 2163.3 -276.9 2200 0L0 0Z" fill="#FBAE3C"></path></g></svg>