<?xml version="1.0" standalone="no"?><svg xmlns="http://www.w3.org/2000/svg" viewBox="0 0 1440 320"><path fill="#FBAE3C" fill-opacity="1" d="M0,128L18.5,133.3C36.9,139,74,149,111,165.3C147.7,181,185,203,222,181.3C258.5,160,295,96,332,96C369.2,96,406,160,443,192C480,224,517,224,554,234.7C590.8,245,628,267,665,256C701.5,245,738,203,775,176C812.3,149,849,139,886,154.7C923.1,171,960,213,997,197.3C1033.8,181,1071,107,1108,64C1144.6,21,1182,11,1218,26.7C1255.4,43,1292,85,1329,96C1366.2,107,1403,85,1422,74.7L1440,64L1440,0L1421.5,0C1403.1,0,1366,0,1329,0C1292.3,0,1255,0,1218,0C1181.5,0,1145,0,1108,0C1070.8,0,1034,0,997,0C960,0,923,0,886,0C849.2,0,812,0,775,0C738.5,0,702,0,665,0C627.7,0,591,0,554,0C516.9,0,480,0,443,0C406.2,0,369,0,332,0C295.4,0,258,0,222,0C184.6,0,148,0,111,0C73.8,0,37,0,18,0L0,0Z"></path></svg>